<?xml version="1.0" encoding="UTF-8" standalone="no"?>
<!DOCTYPE svg PUBLIC "-//W3C//DTD SVG 1.1//EN"
 "http://www.w3.org/Graphics/SVG/1.1/DTD/svg11.dtd">
<!-- Generated by graphviz version 2.28.0 (20110509.1545)
 -->
<!-- Title: finite_state_machine Pages: 1 -->
<svg width="576pt" height="262pt"
 viewBox="0.00 0.00 576.00 262.16" xmlns="http://www.w3.org/2000/svg" xmlns:xlink="http://www.w3.org/1999/xlink">
<g id="graph1" class="graph" transform="scale(0.759894 0.759894) rotate(0) translate(4 341)">
<title>finite_state_machine</title>
<polygon fill="white" stroke="white" points="-4,5 -4,-341 755,-341 755,5 -4,5"/>
<!-- LR_0 -->
<g id="node1" class="node"><title>LR_0</title>
<ellipse fill="none" stroke="black" cx="37" cy="-110" rx="33.0632" ry="33.0632"/>
<ellipse fill="none" stroke="black" cx="37" cy="-110" rx="37.0668" ry="37.0668"/>
<text text-anchor="middle" x="37" y="-104.4" font-family="Times,serif" font-size="14.00">LR_0</text>
</g>
<!-- LR_2 -->
<g id="node6" class="node"><title>LR_2</title>
<ellipse fill="none" stroke="black" cx="177" cy="-151" rx="33.0668" ry="33.0668"/>
<text text-anchor="middle" x="177" y="-145.4" font-family="Times,serif" font-size="14.00">LR_2</text>
</g>
<!-- LR_0&#45;&gt;LR_2 -->
<g id="edge2" class="edge"><title>LR_0&#45;&gt;LR_2</title>
<path fill="none" stroke="black" d="M72.8232,-120.346C91.8123,-125.988 115.422,-133.002 135.262,-138.897"/>
<polygon fill="black" stroke="black" points="134.372,-142.283 144.955,-141.776 136.366,-135.573 134.372,-142.283"/>
<text text-anchor="middle" x="109" y="-138.8" font-family="Times,serif" font-size="14.00">SS(B)</text>
</g>
<!-- LR_1 -->
<g id="node8" class="node"><title>LR_1</title>
<ellipse fill="none" stroke="black" cx="177" cy="-57" rx="33.0668" ry="33.0668"/>
<text text-anchor="middle" x="177" y="-51.4" font-family="Times,serif" font-size="14.00">LR_1</text>
</g>
<!-- LR_0&#45;&gt;LR_1 -->
<g id="edge4" class="edge"><title>LR_0&#45;&gt;LR_1</title>
<path fill="none" stroke="black" d="M71.7586,-97.0347C91.3219,-89.5213 116.052,-80.0236 136.514,-72.1648"/>
<polygon fill="black" stroke="black" points="137.798,-75.4213 145.878,-68.5686 135.288,-68.8866 137.798,-75.4213"/>
<text text-anchor="middle" x="109" y="-91.8" font-family="Times,serif" font-size="14.00">SS(S)</text>
</g>
<!-- LR_3 -->
<g id="node2" class="node"><title>LR_3</title>
<ellipse fill="none" stroke="black" cx="327" cy="-37" rx="33.0632" ry="33.0632"/>
<ellipse fill="none" stroke="black" cx="327" cy="-37" rx="37.0668" ry="37.0668"/>
<text text-anchor="middle" x="327" y="-31.4" font-family="Times,serif" font-size="14.00">LR_3</text>
</g>
<!-- LR_4 -->
<g id="node3" class="node"><title>LR_4</title>
<ellipse fill="none" stroke="black" cx="327" cy="-300" rx="33.0632" ry="33.0632"/>
<ellipse fill="none" stroke="black" cx="327" cy="-300" rx="37.0668" ry="37.0668"/>
<text text-anchor="middle" x="327" y="-294.4" font-family="Times,serif" font-size="14.00">LR_4</text>
</g>
<!-- LR_8 -->
<g id="node4" class="node"><title>LR_8</title>
<ellipse fill="none" stroke="black" cx="713" cy="-156" rx="33.0632" ry="33.0632"/>
<ellipse fill="none" stroke="black" cx="713" cy="-156" rx="37.0668" ry="37.0668"/>
<text text-anchor="middle" x="713" y="-150.4" font-family="Times,serif" font-size="14.00">LR_8</text>
</g>
<!-- LR_6 -->
<g id="node11" class="node"><title>LR_6</title>
<ellipse fill="none" stroke="black" cx="327" cy="-178" rx="33.0668" ry="33.0668"/>
<text text-anchor="middle" x="327" y="-172.4" font-family="Times,serif" font-size="14.00">LR_6</text>
</g>
<!-- LR_8&#45;&gt;LR_6 -->
<g id="edge26" class="edge"><title>LR_8&#45;&gt;LR_6</title>
<path fill="none" stroke="black" d="M676.392,-162.315C632.668,-169.72 556.161,-181.55 490,-186 460.733,-187.969 453.308,-187.219 424,-186 406.287,-185.263 386.784,-183.765 370.01,-182.262"/>
<polygon fill="black" stroke="black" points="370.238,-178.769 359.958,-181.333 369.594,-185.739 370.238,-178.769"/>
<text text-anchor="middle" x="520" y="-187.8" font-family="Times,serif" font-size="14.00">S(b)</text>
</g>
<!-- LR_5 -->
<g id="node13" class="node"><title>LR_5</title>
<ellipse fill="none" stroke="black" cx="457" cy="-110" rx="33.0668" ry="33.0668"/>
<text text-anchor="middle" x="457" y="-104.4" font-family="Times,serif" font-size="14.00">LR_5</text>
</g>
<!-- LR_8&#45;&gt;LR_5 -->
<g id="edge28" class="edge"><title>LR_8&#45;&gt;LR_5</title>
<path fill="none" stroke="black" d="M676.123,-150.567C635.274,-144.214 566.609,-133.026 508,-121 505.184,-120.422 502.281,-119.815 499.359,-119.194"/>
<polygon fill="black" stroke="black" points="499.957,-115.743 489.444,-117.06 498.484,-122.586 499.957,-115.743"/>
<text text-anchor="middle" x="583" y="-143.8" font-family="Times,serif" font-size="14.00">S(a)</text>
</g>
<!-- LR_2&#45;&gt;LR_4 -->
<g id="edge12" class="edge"><title>LR_2&#45;&gt;LR_4</title>
<path fill="none" stroke="black" d="M200.801,-173.955C225.438,-198.758 264.927,-238.514 292.962,-266.739"/>
<polygon fill="black" stroke="black" points="290.655,-269.383 300.185,-274.011 295.621,-264.45 290.655,-269.383"/>
<text text-anchor="middle" x="250" y="-245.8" font-family="Times,serif" font-size="14.00">S(A)</text>
</g>
<!-- LR_2&#45;&gt;LR_6 -->
<g id="edge8" class="edge"><title>LR_2&#45;&gt;LR_6</title>
<path fill="none" stroke="black" d="M209.75,-156.792C231.502,-160.76 260.579,-166.065 284.211,-170.376"/>
<polygon fill="black" stroke="black" points="283.837,-173.866 294.303,-172.217 285.093,-166.979 283.837,-173.866"/>
<text text-anchor="middle" x="250" y="-170.8" font-family="Times,serif" font-size="14.00">SS(b)</text>
</g>
<!-- LR_2&#45;&gt;LR_5 -->
<g id="edge10" class="edge"><title>LR_2&#45;&gt;LR_5</title>
<path fill="none" stroke="black" d="M208.481,-140.365C230.77,-133.078 261.891,-123.91 290,-119.2 331.613,-112.228 379.828,-110.218 413.538,-109.777"/>
<polygon fill="black" stroke="black" points="413.977,-113.274 423.946,-109.685 413.915,-106.274 413.977,-113.274"/>
<text text-anchor="middle" x="327" y="-122.8" font-family="Times,serif" font-size="14.00">SS(a)</text>
</g>
<!-- LR_1&#45;&gt;LR_3 -->
<g id="edge6" class="edge"><title>LR_1&#45;&gt;LR_3</title>
<path fill="none" stroke="black" d="M210.114,-52.6603C230.535,-49.9006 257.303,-46.2834 279.967,-43.2207"/>
<polygon fill="black" stroke="black" points="280.613,-46.6653 290.054,-41.8576 279.675,-39.7284 280.613,-46.6653"/>
<text text-anchor="middle" x="250" y="-52.8" font-family="Times,serif" font-size="14.00">S($end)</text>
</g>
<!-- LR_6&#45;&gt;LR_6 -->
<g id="edge18" class="edge"><title>LR_6&#45;&gt;LR_6</title>
<path fill="none" stroke="black" d="M314.644,-208.621C314.309,-219.823 318.428,-229 327,-229 332.759,-229 336.509,-224.857 338.247,-218.741"/>
<polygon fill="black" stroke="black" points="341.746,-218.942 339.356,-208.621 334.788,-218.18 341.746,-218.942"/>
<text text-anchor="middle" x="327" y="-231.8" font-family="Times,serif" font-size="14.00">S(b)</text>
</g>
<!-- LR_6&#45;&gt;LR_5 -->
<g id="edge20" class="edge"><title>LR_6&#45;&gt;LR_5</title>
<path fill="none" stroke="black" d="M356.407,-162.909C374.592,-153.248 398.398,-140.601 418.175,-130.095"/>
<polygon fill="black" stroke="black" points="420.04,-133.067 427.229,-125.284 416.756,-126.885 420.04,-133.067"/>
<text text-anchor="middle" x="394" y="-151.8" font-family="Times,serif" font-size="14.00">S(a)</text>
</g>
<!-- LR_5&#45;&gt;LR_5 -->
<g id="edge16" class="edge"><title>LR_5&#45;&gt;LR_5</title>
<path fill="none" stroke="black" d="M445.381,-141.125C445.195,-152.097 449.068,-161 457,-161 462.205,-161 465.662,-157.166 467.372,-151.429"/>
<polygon fill="black" stroke="black" points="470.892,-151.473 468.619,-141.125 463.942,-150.632 470.892,-151.473"/>
<text text-anchor="middle" x="457" y="-163.8" font-family="Times,serif" font-size="14.00">S(a)</text>
</g>
<!-- LR_7 -->
<g id="node16" class="node"><title>LR_7</title>
<ellipse fill="none" stroke="black" cx="583" cy="-87" rx="33.0668" ry="33.0668"/>
<text text-anchor="middle" x="583" y="-81.4" font-family="Times,serif" font-size="14.00">LR_7</text>
</g>
<!-- LR_5&#45;&gt;LR_7 -->
<g id="edge14" class="edge"><title>LR_5&#45;&gt;LR_7</title>
<path fill="none" stroke="black" d="M489.611,-104.137C505.061,-101.271 523.855,-97.785 540.449,-94.7071"/>
<polygon fill="black" stroke="black" points="541.252,-98.1178 550.446,-92.8527 539.976,-91.2352 541.252,-98.1178"/>
<text text-anchor="middle" x="520" y="-103.8" font-family="Times,serif" font-size="14.00">S(b)</text>
</g>
<!-- LR_7&#45;&gt;LR_8 -->
<g id="edge22" class="edge"><title>LR_7&#45;&gt;LR_8</title>
<path fill="none" stroke="black" d="M612.964,-101.598C626.686,-108.604 643.261,-117.197 658,-125.2 662.508,-127.648 667.204,-130.249 671.862,-132.861"/>
<polygon fill="black" stroke="black" points="670.286,-135.99 680.714,-137.862 673.729,-129.896 670.286,-135.99"/>
<text text-anchor="middle" x="646" y="-128.8" font-family="Times,serif" font-size="14.00">S(b)</text>
</g>
<!-- LR_7&#45;&gt;LR_5 -->
<g id="edge24" class="edge"><title>LR_7&#45;&gt;LR_5</title>
<path fill="none" stroke="black" d="M551.296,-76.5504C537.806,-73.4763 521.904,-71.9414 508,-76.2 502.288,-77.9496 496.64,-80.5964 491.311,-83.654"/>
<polygon fill="black" stroke="black" points="489.273,-80.8014 482.689,-89.1018 493.012,-86.7191 489.273,-80.8014"/>
<text text-anchor="middle" x="520" y="-79.8" font-family="Times,serif" font-size="14.00">S(a)</text>
</g>
</g>
</svg>
